<?xml version="1.0" encoding="utf-8"?>
<!-- Generator: Adobe Illustrator 23.1.1, SVG Export Plug-In . SVG Version: 6.00 Build 0)  -->
<svg version="1.1" id="Layer_4" xmlns="http://www.w3.org/2000/svg" xmlns:xlink="http://www.w3.org/1999/xlink" x="0px" y="0px"
	 viewBox="0 0 360 360" enable-background="new 0 0 360 360" xml:space="preserve">
<g>
	<path fill="#FFFFFF" d="M61.65,194.43c-1.31-2.93-3.63-4.71-6.87-4.71h-0.69c-3.24,0-5.63,1.78-6.95,4.71l-18.83,42.53
		c-0.39,0.85-0.69,1.7-0.69,2.55c0,3.09,2.39,5.56,5.48,5.56c2.47,0,4.48-1.39,5.48-3.7l3.78-8.88h23.77l3.63,8.49
		c1.08,2.47,2.93,4.09,5.71,4.09c3.16,0,5.63-2.55,5.63-5.71c0-0.77-0.23-1.54-0.62-2.39L61.65,194.43z M46.76,221.98l7.49-17.83
		l7.49,17.83H46.76z"/>
	<path fill="#FFFFFF" d="M95.62,187.79c-3.24,0-5.87,2.62-5.87,5.87v45.54c0,3.24,2.62,5.87,5.87,5.87c3.24,0,5.87-2.62,5.87-5.87
		v-45.54C101.48,190.42,98.86,187.79,95.62,187.79z"/>
	<path fill="#FFFFFF" d="M118.93,202.76c-3.24,0-5.87,2.62-5.87,5.87v30.56c0,3.24,2.62,5.87,5.87,5.87c3.24,0,5.87-2.62,5.87-5.87
		v-30.56C124.79,205.39,122.17,202.76,118.93,202.76z"/>
	<path fill="#FFFFFF" d="M166.78,231.48c-1.39,0-2.55,0.62-3.17,1.08c-2.24,1.78-4.63,2.86-7.72,2.86c-6.41,0-10.5-5.09-10.5-11.42
		v-0.15c0-6.1,4.17-11.27,10.03-11.27c3.09,0,5.25,1,7.33,2.62c0.69,0.54,1.85,1.16,3.4,1.16c2.93,0,5.33-2.31,5.33-5.25
		c0-2.01-1.08-3.4-1.85-4.01c-3.47-2.93-7.87-4.63-14.12-4.63c-12.66,0-21.69,9.72-21.69,21.53v0.15c0,11.81,9.11,21.38,21.53,21.38
		c6.79,0,11.19-2.16,14.66-5.33c1-0.93,1.7-2.16,1.7-3.7C171.72,233.71,169.56,231.48,166.78,231.48z"/>
	<path fill="#FFFFFF" d="M217.1,222.37c0-8.57-6.1-19.91-19.91-19.91c-12.04,0-20.45,9.72-20.45,21.53v0.15
		c0,12.66,9.18,21.38,21.61,21.38c6.02,0,10.73-1.93,14.36-5.02c0.85-0.77,1.54-1.93,1.54-3.47c0-2.62-1.93-4.63-4.55-4.63
		c-1.24,0-2.01,0.31-2.86,0.93c-2.39,1.77-5.09,2.78-8.34,2.78c-5.25,0-8.95-2.78-10.11-8.1h23.23
		C214.71,228,217.1,225.76,217.1,222.37z M188.24,220.67c0.93-5.33,4.09-8.8,8.95-8.8c4.94,0,8.03,3.55,8.72,8.8H188.24z"/>
	<path fill="#FFFFFF" d="M118.93,186.9c-3.24,0-5.87,2.63-5.87,5.87s2.63,5.87,5.87,5.87c3.24,0,5.87-2.63,5.87-5.87
		S122.17,186.9,118.93,186.9z"/>
</g>
<path fill="#44C8F5" d="M317.3,169.67c-0.82-2.29-0.82-2.29-0.82-2.29l0.4-1.9c0,0-0.29-1.2-1.13-2.42
	c-0.03-1.13-0.24-2.27-0.69-3.37c-0.08-0.19-0.17-0.37-0.25-0.55c0.24-0.34,0.42-0.73,0.5-1.17c0.29-1.59-0.75-3.11-2.33-3.42
	c-3.1-0.17-6.86,3.29-7.8,8.43c0.01-0.38-0.55-6.25,3.62-8.98c-0.01,0-0.01-0.01-0.02-0.01l0.03,0c0,0-0.09-0.82-2.07-1.18
	c-1.98-0.36-3.69,0.4-5.96,2.28c-0.01,0.01-0.03,0.02-0.04,0.03c-0.43,0.27-0.82,0.58-1.2,0.91c-1.16,0.93-1.84,1.52-3.39,1.77
	c-2.6,0.42-4.04-2.67-3.43-5.23c0.14-0.59,0.39-1.12,0.71-1.59c-1.76,1.1-3.11,2.85-3.63,5.02c-0.88,3.66,0.85,7.33,3.99,9.08
	c-0.36,0.14-0.77,0.25-1.22,0.34c-4.07,0.73-7.96-1.97-8.69-6.04c-0.17-0.93-0.15-1.85,0.02-2.73c-1.83,2.68-2.67,6.05-2.04,9.5
	c0.89,4.96,5.2,10.06,10.12,12.16c-4.46-0.49-9.76-1.36-14.93-2.88c-12.69-3.73-23.03-9.07-23.03-9.07s-5.71-8.71-9.22-11.26
	c-1.3-0.94,0.39,4.97,2.15,9.15c-1.27-0.36-2.48-0.62-3.37-0.65c-1.39-0.04,4.21,4.31,6.6,5.38c2.61,1.82,6.84,2.89,9.76,5.56
	c2.84,2.6,14.64,10.33,24.26,14.57c-1.19,0.14-2.42,0.26-3.65,0.31c-8.36,0.35-15.63-0.73-15.63-0.73s-7.7-2.32-9.22-1.78
	c-1.53,0.54,2.36,2.37,4.15,3.72l0,0c-0.59,0.29-1.11,0.59-1.46,0.88c-0.58,0.47,2.53,0.4,4.51,0.08c2.17,0.3,4.91,0.35,7.23,0.8
	c2.43,0.48,11.24,3.06,17.86,3.73c-0.12,1.52-0.42,3.02-0.93,4.46c-14.12,2.17-21.95,2.02-26.82-1c-1.71,3.82-1.87,8.93-1.4,13.92
	c0.79,6.14,2.16,10.3,2.16,10.3c-1.74-2.24-2.92-4.53-3.69-6.77c-2.96,1.36-5.66,2.31-5.66,2.31l0-2.22c0-2.09-0.35-4.17-1.07-6.14
	c-1.16-3.17-3.53-7.2-1.6-11.51c2.01-4.47,2.77-4.55,2.03-6.33c-0.74-1.79-3.88-2.7-4.94-6.37c-1.06-3.67-5.71-4.56-9.81-5.35
	c-4.09-0.79,1.7,4.6,2.99,5.93c1.28,1.34,1.59,9.74,0.18,6.48c-0.91-2.1-0.64-3.31-3.17-3.81c-3.1-0.62-8.43-2.19-10.76-1.48
	c-4.27,1.3-1.76,3.36,0.85,3.72c4.51,0.62,9.16,8.66,9.16,8.66s3.56,22.66,6.45,28.19s4.52,5.49,20.55,1.49
	c0.19-0.05,0.38-0.1,0.57-0.15c4.29,7.45,12.54,13.33,12.54,13.33s13.12-5.17,19.72-13.18c6.3-7.64,8.53-16.07,7.85-24.5
	c1.87-3.29,3.04-5.97,3.04-5.97s2.15-4.25,1.75-7.42s-0.86-7.86-0.59-9.55c0.26-1.69,2.39-3.81,2.39-3.81l-0.02,0l2.4-1.19
	l2.18-0.04c1.3-0.15,1.85-1.11,2.19-2.22C317.2,173.76,317.83,171.16,317.3,169.67z"/>
<g>
	<path fill-rule="evenodd" clip-rule="evenodd" fill="#FFFFFF" d="M263.11,144.7c-0.19-0.69-0.24-1.42-0.1-2.14
		c0.15-0.82,0.51-1.56,1.02-2.19c-0.19-0.51-0.7-1.33-1.97-1.4c-1.14-0.06-1.77,1.09-1.78,1.96c0,0.87,0.63,1.96,1.31,2.63
		C262.02,144,262.61,144.4,263.11,144.7z M275.83,139.01c-0.78-0.83-1.83-1.48-3.06-1.81c0.17-0.12,0.29-0.3,0.33-0.52
		c0.08-0.45-0.21-0.87-0.66-0.95c-0.44-0.08-0.87,0.21-0.95,0.66c-0.04,0.22,0.01,0.43,0.13,0.6c-1.23-0.12-2.41,0.1-3.41,0.57
		c-0.04,0.05-0.07,0.1-0.08,0.16c-0.11,0.59,1.53,1.39,3.66,1.78c2.13,0.39,3.94,0.22,4.05-0.37
		C275.84,139.08,275.84,139.05,275.83,139.01z M277.24,140.46c0.72,0.87,1.23,1.87,1.46,2.93c0.33,0.03,0.72-0.04,1.1-0.32
		c0.8-0.62,0.9-1.17,1.59-2.39c0.45-0.8,1.13-0.89,1.13-0.89s0.67,0.15,1.16,0.49c0.5,0.34,0.59,1.06,0.59,1.06s-0.84-0.4-1.33,0.4
		c-0.33,0.55-0.58,1.17-0.84,2.12c-0.16,0.56-0.67,2.87-1.55,3.82c-0.73,0.79-1.8,1.4-3.14,1.43c-0.13,0-0.26,0-0.39-0.01
		c-0.98,0.99-2.28,1.71-3.75,2.05c-0.35,0.58-1.95,0.78-3.78,0.44s-3.26-1.09-3.38-1.75c-1.09-0.73-1.96-1.68-2.54-2.75
		c-0.03-0.01-0.06-0.02-0.09-0.03c-0.9-0.33-2.48-1.53-3.14-2.3c-0.42-0.49-1.21-1.74-1.4-2.62c-0.14-0.67-0.19-1.59,0.05-2.37
		c0.24-0.78,1.1-2.53,3.17-2.29c1.33,0.15,2.3,1.13,2.83,1.8c0.38-0.33,0.8-0.62,1.25-0.88c-0.07,1.1,2.21,2.18,5.21,2.73
		C274.38,141.66,276.86,141.46,277.24,140.46z"/>
	<path fill="#FFFFFF" d="M219.86,172.79c0.18-0.43,0.54-1.53,0.75-2.02c0.94-2.24,2.16-2.57,4.4-1.63l0.75,0.31l1.4-3.33l-0.75-0.31
		c-2.24-0.94-2.85-2.05-1.91-4.29c0.21-0.49,0.74-1.51,0.92-1.94c1.23-2.93,0.54-5.38-4.32-8.51l-2,2.57
		c2.68,2.14,2.8,3.14,2.06,4.89c-0.24,0.57-0.73,1.48-0.98,2.09c-0.88,2.09-0.29,3.66,1.36,5.1c-2.19-0.18-3.72,0.49-4.6,2.59
		c-0.25,0.6-0.57,1.58-0.81,2.16c-0.74,1.75-1.54,2.36-4.94,1.94l-0.45,3.22C216.39,176.94,218.63,175.72,219.86,172.79z"/>
	<path fill="#FFFFFF" d="M231.44,137.03l2.42,3.15l14.75-3.64l-2.47-3.22L236,136.07l5.28-9.09l-2.5-3.26L231.44,137.03z"/>
	<g>
		<g>
			<path fill="#FFFFFF" d="M178.67,86.32l3.13-0.79c0.5-0.13,0.81-0.64,0.68-1.14l-0.73-2.9c-0.13-0.5-0.64-0.81-1.14-0.68
				l-3.13,0.79c-0.5,0.13-0.81,0.64-0.68,1.14l0.73,2.9C177.65,86.14,178.16,86.44,178.67,86.32z"/>
			<path fill="#FFFFFF" d="M186.44,110.99c-6.32,1.6-12.76-2.24-14.36-8.55c-1.6-6.32,2.24-12.76,8.55-14.36
				c6.32-1.6,12.76,2.24,14.36,8.55C196.59,102.95,192.76,109.39,186.44,110.99z M181.15,90.13c-5.19,1.31-8.34,6.6-7.02,11.79
				c1.31,5.19,6.6,8.34,11.79,7.02c5.19-1.31,8.34-6.6,7.03-11.79C191.63,91.97,186.34,88.82,181.15,90.13z"/>
			
				<rect x="179.27" y="87.22" transform="matrix(0.9694 -0.2455 0.2455 0.9694 -16.0594 47.0609)" fill="#FFFFFF" width="2.95" height="1.47"/>
			<path fill="#FFFFFF" d="M179.8,84.78c-2.61,0.66-5.28-0.93-5.94-3.54c-0.66-2.61,0.93-5.28,3.54-5.94
				c2.61-0.66,5.28,0.93,5.94,3.54C184,81.45,182.41,84.12,179.8,84.78z M177.71,76.54c-1.93,0.49-3.1,2.45-2.61,4.38
				c0.49,1.93,2.45,3.1,4.38,2.61c1.93-0.49,3.1-2.45,2.61-4.38C181.6,77.23,179.64,76.06,177.71,76.54z"/>
		</g>
		<path fill="#FFFFFF" d="M189.48,98.44l-0.17-0.66l1.79-0.45c-0.54-1.86-1.72-3.38-3.24-4.37l-0.95,1.6l-0.59-0.35l0.95-1.6
			c-1.6-0.86-3.49-1.18-5.39-0.77l0.45,1.78l-0.66,0.17l-0.45-1.78c-1.84,0.57-3.33,1.75-4.31,3.27l1.53,0.91l-0.35,0.59l-1.52-0.91
			c-0.83,1.58-1.13,3.45-0.73,5.32l1.68-0.42l0.17,0.66l-1.67,0.42c0.56,1.81,1.72,3.29,3.21,4.27l0.87-1.46l0.59,0.35l-0.87,1.46
			c1.57,0.85,3.42,1.16,5.28,0.79l-0.42-1.67l0.66-0.17l0.42,1.68c1.83-0.54,3.33-1.69,4.33-3.17l-1.53-0.91l0.35-0.59l1.53,0.91
			c0.87-1.58,1.21-3.46,0.83-5.35L189.48,98.44z M188.67,104.53c-0.12,0.12-0.32,0.12-0.44,0l-4.16-3.94
			c-0.08,0.04-0.16,0.07-0.24,0.09c-0.71,0.18-1.43-0.25-1.61-0.96c-0.09-0.35-0.03-0.7,0.14-0.99l-0.53-3.88
			c-0.03-0.26,0.13-0.5,0.38-0.57c0,0,0,0,0,0c0.26-0.06,0.52,0.08,0.6,0.33l1.29,3.6c0.33,0.17,0.58,0.47,0.68,0.85
			c0.07,0.28,0.04,0.56-0.05,0.81l3.96,4.2C188.81,104.21,188.8,104.41,188.67,104.53z"/>
	</g>
	<g>
		<path fill="#FFFFFF" d="M241.63,81.89l4.53,0.92l0.24-3.15l-4.6,0.25l3.04-3.46l-2.63-1.76l-2.08,4.13l-1.44-4.36l-2.8,1.36
			l2.53,3.83l-4.53-0.92l-0.24,3.15l4.6-0.25l-3.04,3.46l2.63,1.76l2.08-4.13l1.44,4.36l2.8-1.36L241.63,81.89z"/>
	</g>
	<path fill="#FFFFFF" d="M315.14,136.32c-0.03,0-0.07-0.01-0.1-0.02l-2.65-1.41l-2.67,1.39c-0.07,0.04-0.15,0.03-0.22-0.02
		c-0.06-0.05-0.09-0.12-0.08-0.2l0.52-2.96l-2.14-2.11c-0.06-0.06-0.08-0.14-0.05-0.21c0.02-0.07,0.09-0.13,0.17-0.14l2.98-0.42
		l1.35-2.69c0.03-0.07,0.11-0.11,0.18-0.11c0.08,0,0.15,0.05,0.18,0.12l1.32,2.7l2.97,0.45c0.08,0.01,0.14,0.07,0.17,0.14
		c0.02,0.07,0,0.16-0.05,0.21l-2.16,2.09l0.49,2.93c0.01,0.02,0.01,0.04,0.01,0.07C315.35,136.23,315.26,136.32,315.14,136.32
		C315.14,136.32,315.14,136.32,315.14,136.32z"/>
	<g>
		<path fill="#FFFFFF" d="M328.93,240.52l4.53,0.92l0.24-3.15l-4.6,0.25l3.04-3.46l-2.63-1.76l-2.08,4.13l-1.44-4.36l-2.8,1.36
			l2.53,3.83l-4.53-0.92l-0.24,3.15l4.6-0.25l-3.04,3.46l2.63,1.76l2.08-4.13l1.44,4.36l2.8-1.36L328.93,240.52z"/>
	</g>
</g>
<g>
	<g>
		<path fill="#BBE4EA" d="M211.2,159.95c-5.04-3.02-7.66-7.79-7.77-14.18c-0.11-6.27,2.37-13.66,6.51-20.74
			c-0.97-0.13-1.91-0.3-2.84-0.52c-4.07,7.23-6.45,14.75-6.34,21.31c0.12,7.26,3.26,12.94,9.06,16.42c0.21,0.13,0.45,0.19,0.68,0.19
			c0.45,0,0.9-0.23,1.15-0.65C212.04,161.15,211.83,160.33,211.2,159.95z"/>
		<path fill="#BBE4EA" d="M250.02,99.28c-0.04-0.33-0.21-0.66-0.37-0.99c-0.14-0.34-0.36-0.61-0.6-0.88
			c-0.12-0.13-0.23-0.27-0.36-0.39l-0.41-0.3l-0.42-0.28c-0.14-0.08-0.28-0.13-0.42-0.2c-0.58-0.28-1.12-0.38-1.68-0.51
			c-0.53-0.05-1.08-0.14-1.58-0.11c-2.04,0.02-3.9,0.46-5.69,1.01c-3.56,1.14-6.83,2.84-9.91,4.79c-0.06,0.03-0.12,0.05-0.17,0.09
			c-6.9,4.46-13.09,10.7-17.87,17.53c-2.02-0.2-4-0.62-5.89-1.32c-3.14-1.12-5.94-3.09-7.91-5.8l-0.01-0.01
			c-0.3-0.41-0.86-0.53-1.3-0.27c-0.47,0.28-0.64,0.88-0.36,1.36c1.91,3.3,5.06,5.8,8.52,7.33c3.49,1.53,7.27,2.15,11,2.21
			c7.5,0.09,14.83-2.12,21.34-5.69c3.25-1.81,6.27-4.04,8.89-6.76c1.32-1.35,2.52-2.83,3.55-4.5c0.49-0.87,0.99-1.73,1.33-2.76
			C250.06,101.83,250.33,100.64,250.02,99.28z M246.81,100.72c-0.09,0.31-0.14,0.61-0.3,0.94c-0.25,0.65-0.67,1.33-1.1,1.98
			c-0.92,1.3-2.09,2.51-3.32,3.65c-2.49,2.26-5.27,4.26-8.18,6.01c-2.92,1.74-6.06,3.13-9.31,4.14c-3.26,0.99-6.63,1.59-10.02,1.73
			c-0.26,0.01-0.52,0.01-0.78,0.01c4.44-6.02,10-11.49,16.06-15.42c0.04-0.02,0.08-0.03,0.12-0.06l0.02-0.01
			c1.48-0.9,3-1.73,4.56-2.47c1.57-0.71,3.17-1.33,4.79-1.79c1.62-0.46,3.28-0.77,4.8-0.73c0.39-0.02,0.73,0.07,1.08,0.1
			c0.31,0.09,0.64,0.15,0.86,0.29c0.48,0.25,0.67,0.51,0.73,0.88C246.88,100.17,246.83,100.45,246.81,100.72z"/>
	</g>
	<path fill="#BBE4EA" d="M284.81,135.2c1.15-2.23,2.16-4.53,2.72-6.88c0.55-2.33,0.68-4.76-0.11-6.78c-0.65-1.94-2.62-3.2-4.92-3.87
		c-2.3-0.67-4.83-0.82-7.35-0.7c-5.06,0.26-10.11,1.59-14.9,3.48c-4.8,1.91-9.36,4.45-13.56,7.49c-0.34,0.24-0.8,0.17-1.05-0.17
		c-0.24-0.33-0.17-0.79,0.15-1.03c4.19-3.26,8.78-6.03,13.67-8.18c4.89-2.13,10.08-3.7,15.52-4.18c2.71-0.22,5.5-0.18,8.28,0.52
		c1.39,0.36,2.78,0.9,4.06,1.78c0.64,0.44,1.24,0.97,1.76,1.59c0.52,0.61,0.96,1.37,1.24,2.06c1.25,2.87,1.1,5.96,0.54,8.71
		c-0.57,2.78-1.62,5.36-2.86,7.8c-0.45,0.89-1.53,1.24-2.42,0.79c-0.89-0.45-1.24-1.53-0.79-2.42l0.01-0.01L284.81,135.2z"/>
	<path fill="#BBE4EA" d="M332.99,220.08c-0.4-1.43-0.96-2.82-1.69-4.1c-0.71-1.29-1.53-2.51-2.48-3.61
		c-1.87-2.22-4.07-4.08-6.45-5.58c-2.38-1.51-4.89-2.74-7.58-3.56c-0.21-0.06-0.45,0.03-0.56,0.23c-0.13,0.23-0.04,0.52,0.19,0.65
		l0.02,0.01c2.34,1.27,4.58,2.8,6.61,4.47c2.03,1.7,3.85,3.58,5.34,5.66c1.46,2.09,2.61,4.35,3.21,6.75
		c0.33,1.19,0.52,2.42,0.6,3.65c0.13,1.24,0.03,2.49-0.04,3.75l-0.01,0.09c-0.04,0.81,0.52,1.54,1.34,1.68
		c0.88,0.16,1.72-0.43,1.88-1.31C333.88,226,333.84,222.94,332.99,220.08z"/>
</g>
</svg>
